<?xml version="1.0" encoding="UTF-8" standalone="no"?>
<!DOCTYPE svg PUBLIC "-//W3C//DTD SVG 1.1//EN" "http://www.w3.org/Graphics/SVG/1.1/DTD/svg11.dtd">
<svg width="100%" height="100%" viewBox="0 0 640 192" version="1.1" xmlns="http://www.w3.org/2000/svg" xmlns:xlink="http://www.w3.org/1999/xlink" xml:space="preserve" xmlns:serif="http://www.serif.com/" style="fill-rule:evenodd;clip-rule:evenodd;stroke-linecap:round;stroke-linejoin:round;stroke-miterlimit:1.5;">
    <g transform="matrix(1,0,0,1,226.888,-37.5878)">
        <text x="25.454px" y="78.318px" style="font-family:'Helvetica';font-size:12px;">Top of callee stack layout</text>
    </g>
    <g transform="matrix(1,0,0,1,0,4)">
        <g transform="matrix(1.7188e-17,-0.280702,0.181818,1.11332e-17,294.545,167.93)">
            <path d="M128,140L213.5,140L213.5,118L242,140L213.5,162L213.5,140L128,140Z" style="stroke:black;stroke-width:4.23px;"/>
        </g>
        <g transform="matrix(1,0,0,1,226.879,68.1212)">
            <text x="86.819px" y="78.318px" style="font-family:'Helvetica';font-size:12px;">sp</text>
        </g>
    </g>
    <g transform="matrix(1,0,0,1,0,4)">
        <g>
            <g>
                <g transform="matrix(1,0,0,1,2.65959,-4.13464)">
                    <text x="78.818px" y="78.318px" style="font-family:'Helvetica';font-size:12px;">caller</text>
                    <text x="77.816px" y="90.318px" style="font-family:'Helvetica';font-size:12px;">locals</text>
                </g>
                <rect x="64" y="60" width="64" height="32" style="fill:none;stroke:black;stroke-width:1px;"/>
            </g>
            <g>
                <g transform="matrix(1,0,0,1,66.8529,0.56458)">
                    <text x="81.147px" y="78.318px" style="font-family:'Helvetica';font-size:12px;">arg2</text>
                </g>
                <g transform="matrix(1,0,0,1,64,0)">
                    <rect x="64" y="60" width="64" height="32" style="fill:none;stroke:black;stroke-width:1px;"/>
                </g>
            </g>
            <g>
                <g transform="matrix(1,0,0,1,163.817,0.56458)">
                    <text x="81.147px" y="78.318px" style="font-family:'Helvetica';font-size:12px;">arg1</text>
                </g>
                <g transform="matrix(1,0,0,1,0,-4)">
                    <rect x="192" y="64" width="128" height="32" style="fill:none;stroke:black;stroke-width:1px;"/>
                </g>
            </g>
            <g>
                <g transform="matrix(1,0,0,1,258.821,-4.42468)">
                    <text x="77.482px" y="78.318px" style="font-family:'Helvetica';font-size:12px;">return</text>
                    <text x="71.81px" y="90.318px" style="font-family:'Helvetica';font-size:12px;">address</text>
                </g>
                <g transform="matrix(1,0,0,1,256,0)">
                    <rect x="64" y="60" width="64" height="32" style="fill:none;stroke:black;stroke-width:1px;"/>
                </g>
            </g>
            <g transform="matrix(1,0,0,1,320,0)">
                <rect x="64" y="60" width="64" height="32" style="fill:none;stroke:black;stroke-width:1px;"/>
            </g>
            <g transform="matrix(1,0,0,1,384,0)">
                <rect x="64" y="60" width="64" height="32" style="fill:none;stroke:black;stroke-width:1px;"/>
            </g>
            <g transform="matrix(1,0,0,1,448,0)">
                <rect x="64" y="60" width="64" height="32" style="fill:none;stroke:black;stroke-width:1px;"/>
            </g>
        </g>
    </g>
</svg>
